<svg xmlns="http://www.w3.org/2000/svg" viewBox="0 0 280.01 262.42"><defs><style>.cls-1{fill:none;fill-rule:evenodd;}</style></defs><title>资源 1</title><g id="图层_2" data-name="图层 2"><g id="图层_1-2" data-name="图层 1"><path class="cls-1" d="M123,.16c36.58-.71,70.44,1,102,6,13.42,2.14,28.67-4.46,32,7,2.61,9-13.92,32.74-19,36l-12,3C209.92,67,186.19,143,180,171.16c-3.19,14.43-9.42,36.06-2,48,44.27,9.9,76-40,101-39l1,2c2.34,29.21-109.13,89.76-144,79-27.46-69.43,43.56-162.42,63-211v-1c-59.61-2.63-140.8-15.75-174,21-.38,28.16,17.27,27,31,40,1.35,44.31-40.85,41.54-53,9-16.52-44.23,40-94.3,67-106C85.79,6.3,105.21,7.17,123,.16Z"/></g></g></svg>